# xmcd
#
# Track frame offsets:
#	150
#	20362
#	42382
#
# Disc length: 942 seconds
#
# Revision: 1
# Processed by: cddbd v1.5PL3 Copyright (c) Steve Scherf et al.
# Submitted via: CDex 1.50Beta5
#
DISCID=1c03ac03
DTITLE=4D-JAM - Wonderrin' Hands
DYEAR=1900
DGENRE=Rock -> General Rock
TTITLE0=Wonderrin' Hands
TTITLE1=Space and Time
TTITLE2=Strawberry Jam 2000
EXTD=
EXTT0=
EXTT1=
EXTT2=
PLAYORDER=
